<?xml version="1.0" encoding="utf-8"?>
<!-- Generator: Adobe Illustrator 16.0.0, SVG Export Plug-In . SVG Version: 6.00 Build 0)  -->
<!DOCTYPE svg PUBLIC "-//W3C//DTD SVG 1.1//EN" "http://www.w3.org/Graphics/SVG/1.1/DTD/svg11.dtd">
<svg version="1.1" id="Layer_1" xmlns="http://www.w3.org/2000/svg" xmlns:xlink="http://www.w3.org/1999/xlink" x="0px" y="0px"
	 width="31.506px" height="41.746px" viewBox="0 0 31.506 41.746" enable-background="new 0 0 31.506 41.746" xml:space="preserve">
<g id="notes_x5F_2_1_">
	<path d="M6.301,7.875V4.76c0-0.867,0.741-1.609,1.608-1.609h3.117V1.706C11.026,0.842,11.735,0,12.602,0h6.303
		c0.864,0,1.573,0.842,1.573,1.706V3.15h3.117c0.87,0,1.61,0.742,1.61,1.609v3.115c0,0.866-0.74,1.576-1.61,1.576H7.909
		C7.042,9.451,6.301,8.741,6.301,7.875z M31.506,5.514v36.232c0,0.432-0.354,0.787-0.788,0.787H0.786
		C0.354,42.533,0,42.177,0,41.746V5.514C0,5.08,0.354,4.726,0.786,4.726h3.939v4.726c0,0.867,0.711,1.576,1.575,1.576h18.904
		c0.864,0,1.575-0.709,1.575-1.576V4.726h3.938C31.151,4.726,31.506,5.08,31.506,5.514z M4.726,22.054h15.752v-1.577H4.726V22.054z
		 M12.602,36.232H4.726v1.574h7.876V36.232z M26.78,33.082H4.726v1.576H26.78V33.082z M26.78,29.931H4.726v1.574H26.78V29.931z
		 M26.78,26.779H4.726v1.576H26.78V26.779z M26.78,23.63H6.301v1.574H26.78V23.63z M26.78,17.327H4.726v1.575H26.78V17.327z
		 M26.78,14.176H6.301v1.578H26.78V14.176z"/>
	<path opacity="0" fill="none" d="M20.478,22.054H4.726v-1.577h15.752V22.054z M26.78,17.327H4.726v1.575H26.78V17.327z
		 M26.78,14.176H6.301v1.578H26.78V14.176z M26.78,23.63H6.301v1.574H26.78V23.63z M26.78,26.779H4.726v1.576H26.78V26.779z
		 M26.78,29.931H4.726v1.574H26.78V29.931z M26.78,33.082H4.726v1.576H26.78V33.082z M12.602,36.232H4.726v1.574h7.876V36.232z"/>
</g>
</svg>
